<svg xmlns="http://www.w3.org/2000/svg" xmlns:xlink="http://www.w3.org/1999/xlink" zoomAndPan="magnify" preserveAspectRatio="xMidYMid meet" version="1.0" viewBox="240.73 -2.00 543.32 572.7"><defs><clipPath id="5cf73808c0"><path d="M 240.738281 526 L 784.03125 526 L 784.03125 575.859375 L 240.738281 575.859375 Z M 240.738281 526 " clip-rule="nonzero"/></clipPath></defs><path fill="#221717" d="M 426.917969 301.714844 L 424.730469 301.714844 L 419.628906 314.359375 C 434.214844 329.578125 458.070312 323.136719 458.070312 323.136719 L 463.0625 311.199219 L 461.082031 308.007812 L 459.949219 310.859375 C 441.3125 312.933594 425.726562 304.8125 425.726562 304.8125 Z M 629.761719 236.683594 C 640.757812 269.839844 671.144531 332.457031 671.144531 332.457031 C 671.144531 332.457031 646.332031 248.640625 633.519531 226.425781 C 620.714844 204.210938 585.199219 201.15625 578.699219 202.347656 C 581.730469 202.128906 618.765625 203.53125 629.761719 236.683594 Z M 556.941406 70.527344 C 586.117188 150.113281 578.265625 202.128906 578.265625 202.128906 C 570.160156 204.5625 566.550781 208.113281 557.28125 219.230469 C 548.007812 230.355469 534.625 238.917969 534.625 238.917969 L 425.660156 288.871094 C 399.144531 288.503906 390.058594 240.585938 390.058594 240.585938 C 386.816406 260.050781 405.355469 284.140625 405.355469 284.140625 C 392.839844 286.460938 371.515625 268.386719 371.515625 268.386719 C 357.609375 255.878906 352.511719 229.003906 352.511719 229.003906 C 348.800781 237.34375 353.4375 253.097656 353.4375 253.097656 C 326.085938 209.542969 345.554688 148.835938 357.148438 133.546875 C 368.738281 118.257812 378.472656 81.183594 387.742188 54.308594 C 397.011719 27.433594 418.339844 7.511719 466.914062 3.800781 C 515.496094 0.0976562 526.8125 27.898438 526.8125 27.898438 C 541.179688 30.210938 549.679688 50.710938 556.941406 70.527344 " fill-opacity="1" fill-rule="nonzero"/><g clip-path="url(#5cf73808c0)"><path fill="#221717" d="M 661.535156 527.695312 C 673.269531 527.695312 732.515625 527.695312 742.011719 531.914062 C 751.515625 536.128906 789.519531 569.339844 783.367188 574.183594 C 777.222656 579.027344 739.21875 573.253906 712.949219 574.078125 C 686.683594 574.910156 620.738281 570.457031 603.464844 571.578125 C 586.191406 572.691406 257.976562 576.601562 244.5625 571.578125 C 231.148438 566.546875 256.296875 554.257812 269.710938 545.296875 C 283.125 536.335938 287.941406 530.152344 296.535156 527.695312 C 303.558594 525.691406 649.800781 527.695312 661.535156 527.695312 " fill-opacity="1" fill-rule="nonzero"/></g><path fill="#3d312f" d="M 458.070312 323.136719 C 458.070312 323.136719 434.214844 329.578125 419.628906 314.359375 L 424.730469 301.714844 L 426.917969 301.714844 L 425.726562 304.8125 C 425.726562 304.8125 441.3125 312.933594 459.949219 310.859375 L 461.082031 308.007812 L 463.0625 311.199219 Z M 671.582031 331.617188 C 671.570312 331.59375 640.773438 269.195312 629.558594 236.121094 C 618.34375 203.046875 581.300781 201.886719 578.265625 202.125 C 577.351562 202.402344 576.507812 202.691406 575.695312 203 C 575.1875 203.207031 574.613281 203.449219 573.992188 203.714844 C 568.554688 206.222656 564.757812 210.265625 557.28125 219.230469 C 548.007812 230.355469 534.625 238.917969 534.625 238.917969 L 425.660156 288.871094 C 399.144531 288.503906 390.058594 240.585938 390.058594 240.585938 C 386.816406 260.050781 405.355469 284.140625 405.355469 284.140625 C 400.695312 285.003906 394.8125 283.039062 389.261719 280.230469 C 389.261719 280.230469 357.898438 278.726562 356.28125 313.269531 C 354.660156 347.808594 354.671875 366.550781 351.890625 379.347656 C 349.101562 392.148438 391.375 445.488281 401.628906 446.03125 C 411.886719 446.566406 428.394531 418.84375 428.394531 418.84375 C 428.394531 418.84375 425.386719 437.394531 431.328125 443.871094 C 437.265625 450.347656 450.765625 459.519531 454.542969 476.25 C 458.320312 492.980469 454.730469 527.695312 454.730469 527.695312 C 454.730469 527.695312 668.34375 501.074219 671.582031 497.839844 C 674.824219 494.601562 671.582031 331.617188 671.582031 331.617188 " fill-opacity="1" fill-rule="nonzero"/><path fill="#ffd89d" d="M 725.035156 484.347656 C 721.253906 455.742188 671.582031 331.617188 671.582031 331.617188 C 642.425781 332.15625 606.796875 373.171875 606.796875 373.171875 C 621.910156 396.378906 653.320312 486.292969 653.320312 486.292969 C 639.816406 477.804688 609.871094 486.367188 568.835938 490.144531 C 527.804688 493.925781 489.632812 489.207031 480.457031 490.285156 C 471.277344 491.363281 435.105469 527.519531 435.105469 527.519531 C 435.105469 527.519531 482.617188 528.058594 485.316406 527.519531 C 488.019531 526.980469 539.84375 528.597656 585.742188 540.472656 C 631.632812 552.347656 709.375 546.410156 718.011719 540.472656 C 726.652344 534.535156 728.8125 512.949219 725.035156 484.347656 " fill-opacity="1" fill-rule="nonzero"/><path fill="#ffd89d" d="M 454.820312 323.796875 C 448.035156 324.898438 432.046875 326.066406 420.773438 315.488281 C 406.515625 344.238281 375.300781 397.15625 375.300781 397.15625 C 375.300781 397.15625 370.960938 385.011719 351.890625 379.347656 C 350.453125 388.035156 339.160156 434.808594 330.507812 449.566406 C 321.855469 464.320312 317.273438 490.78125 323.382812 510.621094 C 329.492188 530.464844 340.691406 543.1875 351.890625 545.226562 C 363.082031 547.257812 410.425781 507.0625 413.988281 485.183594 C 417.550781 463.304688 442.488281 354.925781 452.164062 330.507812 C 453.125 328.082031 454.007812 325.851562 454.820312 323.796875 " fill-opacity="1" fill-rule="nonzero"/><path fill="#ffd89d" d="M 425.226562 110.308594 C 425.226562 110.308594 427.925781 112.746094 418.792969 115.914062 C 418.53125 116.007812 423.917969 113.359375 425.226562 110.308594 Z M 460.613281 110.328125 C 461.101562 112.527344 462.25 116.855469 463.949219 118.355469 C 463.949219 118.355469 462.515625 113.550781 462.082031 110.34375 C 469.222656 110.394531 483.929688 110.492188 487.574219 110.308594 C 492.441406 110.066406 501.800781 126.410156 501.800781 126.410156 C 501.800781 126.410156 494.011719 121.542969 490.117188 119.351562 C 486.226562 117.164062 470.707031 119.214844 465.839844 119.214844 C 460.976562 119.214844 458.140625 110.308594 458.140625 110.308594 C 458.140625 110.308594 459.082031 110.316406 460.613281 110.328125 Z M 427.730469 298.449219 C 427.695312 299.183594 427.40625 300.300781 426.917969 301.714844 C 426.605469 302.625 426.207031 303.65625 425.726562 304.8125 C 425.730469 304.8125 441.3125 312.933594 459.949219 310.859375 L 459.960938 310.839844 C 460.363281 309.824219 460.726562 308.910156 461.050781 308.082031 L 461.082031 308.007812 C 463.25 302.542969 463.871094 300.996094 463.871094 300.996094 C 463.871094 300.996094 530.554688 299.464844 534.625 238.917969 C 534.625 238.917969 516.808594 233.832031 516.808594 218.054688 C 516.808594 202.285156 524.953125 173.792969 524.953125 173.792969 C 524.953125 173.792969 533.09375 176.84375 537.679688 164.636719 C 537.679688 164.636719 525.464844 155.980469 524.445312 144.789062 C 523.425781 133.59375 518.332031 86.277344 508.664062 80.679688 C 508.664062 80.679688 485.757812 71.519531 486.269531 55.238281 C 486.269531 55.238281 449.621094 59.3125 433.328125 47.097656 C 431.511719 45.734375 420.097656 60.328125 406.351562 65.925781 C 406.351562 65.925781 396.917969 85.167969 399.96875 105.519531 C 405.472656 104.269531 424.21875 110.308594 424.21875 110.308594 C 424.21875 110.308594 419.054688 116.035156 411.53125 115.460938 C 401.90625 114.726562 398 115.917969 397.996094 115.917969 C 397.253906 119.375 397.449219 121.195312 399.621094 126.472656 L 397.910156 139.703125 C 397.910156 139.703125 393.625 144.789062 393.117188 154.457031 C 392.605469 164.125 390.574219 197.199219 393.117188 205.339844 C 395.664062 213.476562 428.238281 287.765625 427.730469 298.449219 " fill-opacity="1" fill-rule="nonzero"/><path fill="#8b8272" d="M 653.320312 486.292969 C 653.320312 486.292969 666.234375 493.433594 671.011719 503.378906 C 671.011719 503.378906 667.433594 490.644531 651.910156 482.296875 Z M 320.589844 490.027344 C 320.714844 489.746094 327.785156 473.65625 336.011719 452.511719 C 344.3125 431.1875 375.300781 397.15625 375.300781 397.15625 C 375.300781 397.15625 370.960938 385.011719 351.890625 379.347656 C 350.453125 388.035156 339.164062 434.808594 330.507812 449.566406 C 324.640625 459.574219 320.648438 474.964844 320.589844 490.027344 Z M 422.085938 227.273438 C 419.1875 222.019531 414.753906 210.285156 414.019531 209.183594 C 413.8125 208.878906 413.460938 208.058594 413.011719 206.96875 C 413.011719 206.957031 409.757812 192.121094 410.371094 189.335938 C 410.984375 186.554688 410.371094 162.714844 410.371094 162.714844 L 407.0625 192.199219 C 405.464844 186.414062 403.410156 175.441406 403.597656 163.515625 C 403.914062 143.679688 397.910156 139.703125 397.910156 139.703125 C 401.4375 148.332031 400.792969 164.316406 401.59375 177.9375 C 402.066406 186.03125 404.242188 192.691406 406.429688 197.871094 L 406.421875 197.882812 L 406.4375 197.898438 C 407.921875 201.425781 409.414062 204.269531 410.371094 206.378906 C 412.34375 210.726562 419.703125 223.25 422.085938 227.273438 Z M 422.085938 227.273438 C 422.347656 227.75 422.597656 228.179688 422.832031 228.539062 C 422.832031 228.539062 422.554688 228.066406 422.085938 227.273438 Z M 433.121094 297.441406 C 432.71875 300.65625 431.277344 303.523438 429.945312 306.640625 C 430.632812 306.910156 431.402344 307.191406 432.234375 307.476562 C 433.878906 302.875 435.46875 298.609375 435.105469 296.15625 C 434.457031 291.703125 429.128906 268.871094 429.128906 268.871094 C 428.445312 270.871094 433.921875 291.03125 433.121094 297.441406 Z M 427.121094 320.066406 C 425.769531 327.542969 419.628906 334.570312 419.628906 334.570312 C 419.628906 334.570312 426.570312 327.75 428.628906 320.835938 C 428.121094 320.597656 427.621094 320.335938 427.121094 320.066406 Z M 534.625 238.917969 C 530.554688 299.464844 463.871094 300.996094 463.871094 300.996094 C 463.871094 300.996094 470.476562 288.871094 466.914062 269.957031 C 465.363281 261.707031 454.449219 254.15625 447.558594 241.769531 C 447.808594 242.3125 448.09375 242.871094 448.433594 243.4375 C 448.433594 243.4375 434.628906 226.003906 429.128906 209.582031 C 423.632812 193.15625 425.5625 158.707031 410.371094 162.714844 C 410.371094 162.714844 420.832031 157.90625 422.832031 171.929688 C 424.835938 185.949219 431.746094 213.589844 435.105469 218.796875 C 438.460938 224.007812 446.0625 236.796875 446.0625 236.796875 C 446.0625 236.796875 453.121094 239.710938 462.28125 233.046875 C 471.441406 226.390625 499.75 213.90625 504.332031 208.078125 C 508.914062 202.253906 527.316406 175.238281 529.148438 156.078125 C 532.960938 161.292969 537.679688 164.636719 537.679688 164.636719 C 533.09375 176.84375 524.953125 173.792969 524.953125 173.792969 C 524.953125 173.792969 516.808594 202.285156 516.808594 218.054688 C 516.808594 233.832031 534.625 238.917969 534.625 238.917969 " fill-opacity="1" fill-rule="nonzero"/></svg>